<svg width="512" height="512" viewBox="0 0 512 512" fill="none" xmlns="http://www.w3.org/2000/svg">
  <rect width="512" height="512" rx="100" fill="#111111"/>
  <path d="M138 160H188.8C211.467 160 228.467 164.533 239.8 173.6C251.133 182.667 256.8 196.267 256.8 214.4C256.8 232.533 251.133 246.133 239.8 255.2C228.467 264.267 211.467 268.8 188.8 268.8H178V352H138V160ZM187.2 236.8C197.6 236.8 205.2 234.4 210 229.6C214.8 224.8 217.2 218.133 217.2 209.6C217.2 201.067 214.8 194.4 210 189.6C205.2 184.8 197.6 182.4 187.2 182.4H178V236.8H187.2Z" fill="url(#paint0_linear_1_2)"/>
  <path d="M268.375 160H317.975L359.175 258.4H360.775L359.175 226.4V160H399.175V352H349.575L308.375 253.6H306.775L308.375 285.6V352H268.375V160Z" fill="url(#paint1_linear_1_2)"/>
  <defs>
    <linearGradient id="paint0_linear_1_2" x1="197.4" y1="160" x2="197.4" y2="352" gradientUnits="userSpaceOnUse">
      <stop stop-color="#A855F7"/>
      <stop offset="1" stop-color="#EC4899"/>
    </linearGradient>
    <linearGradient id="paint1_linear_1_2" x1="333.775" y1="160" x2="333.775" y2="352" gradientUnits="userSpaceOnUse">
      <stop stop-color="#A855F7"/>
      <stop offset="1" stop-color="#EC4899"/>
    </linearGradient>
  </defs>
</svg> 